<svg  viewBox="0 0 143 34" fill="none" xmlns="http://www.w3.org/2000/svg">
<path d="M0.876404 6.81818V33H4.63493V14.0412H4.87782L12.5994 32.9616H15.7187L23.4403 14.054H23.6832V33H27.4417V6.81818H22.6477L14.3125 27.1705H14.0057L5.67044 6.81818H0.876404Z" fill="#19432f"/>
<path d="M42.0092 33.3963C46.2919 33.3963 49.3217 31.2869 50.191 28.0909L46.5731 27.4389C45.8828 29.2926 44.2209 30.2386 42.0476 30.2386C38.7748 30.2386 36.576 28.1165 36.4737 24.3324H50.4339V22.9773C50.4339 15.8821 46.1896 13.108 41.7408 13.108C36.2692 13.108 32.664 17.2756 32.664 23.3097C32.664 29.4077 36.218 33.3963 42.0092 33.3963ZM36.4865 21.4688C36.6399 18.6818 38.6598 16.2656 41.7663 16.2656C44.7322 16.2656 46.6754 18.4645 46.6882 21.4688H36.4865Z" fill="#19432f"/>
<path d="M69.3895 18.1577C68.5969 15.1023 66.2063 13.108 61.962 13.108C57.5259 13.108 54.381 15.4474 54.381 18.9247C54.381 21.7116 56.0685 23.5653 59.7503 24.3835L63.0742 25.1122C64.9662 25.5341 65.8484 26.3778 65.8484 27.6051C65.8484 29.1264 64.2248 30.3153 61.7191 30.3153C59.4307 30.3153 57.9606 29.331 57.5003 27.4006L53.8057 27.9631C54.4449 31.4403 57.3341 33.3963 61.7447 33.3963C66.4876 33.3963 69.7731 30.8778 69.7731 27.3239C69.7731 24.5497 68.0089 22.8366 64.4037 22.0057L61.2844 21.2898C59.1239 20.7784 58.1907 20.0497 58.2035 18.7202C58.1907 17.2116 59.827 16.1378 62.0003 16.1378C64.3782 16.1378 65.4776 17.4545 65.9251 18.7713L69.3895 18.1577Z" fill="#19432f"/>
<path d="M83.142 13.3636H79.115V8.65909H75.2926V13.3636H72.4162V16.4318H75.2926V28.027C75.2798 31.5938 78.0028 33.3196 81.0199 33.2557C82.2344 33.2429 83.0525 33.0128 83.5 32.8466L82.8096 29.6889C82.554 29.7401 82.081 29.8551 81.4673 29.8551C80.2273 29.8551 79.115 29.446 79.115 27.2344V16.4318H83.142V13.3636Z" fill="#19432f"/>
<path d="M95.4307 33.3963C100.966 33.3963 104.584 29.3438 104.584 23.2713C104.584 17.1605 100.966 13.108 95.4307 13.108C89.8952 13.108 86.2773 17.1605 86.2773 23.2713C86.2773 29.3438 89.8952 33.3963 95.4307 33.3963ZM95.4435 30.1875C91.8256 30.1875 90.1381 27.0298 90.1381 23.2585C90.1381 19.5 91.8256 16.304 95.4435 16.304C99.0359 16.304 100.723 19.5 100.723 23.2585C100.723 27.0298 99.0359 30.1875 95.4435 30.1875Z" fill="#19432f"/>
</svg>
